# xmcd
#
# Track frame offsets:
#	150
#	23566
#	42910
#	63168
#	89238
#	105251
#	128056
#	154035
#	176422
#	196823
#
# Disc length: 2900 seconds
#
# Revision: 2651531741
# Processed by: cddbd v1.5.2PL0 Copyright (c) Steve Scherf et al.
# Submitted via: EZCDAudioConverter 8.0.2.1
#
DISCID=740b520a
DTITLE=Lương Thùy Linh - Vol 01. Trăng Thương
DYEAR=2010
DGENRE=Americana - Roots
TTITLE0=Người ơi hãy về
TTITLE1=Thơ tình của núi
TTITLE2=Tình đất
TTITLE3=Sóng đàn Thăng Long
TTITLE4=Trăng Thương
TTITLE5=Gửi người thương câu hát
TTITLE6=Bài ca thống nhất
TTITLE7=Lội dòng sông quê
TTITLE8=Ngược dòng Hương Giang
TTITLE9=Xem hội trăng rằm
EXTD=
EXTT0=
EXTT1=
EXTT2=
EXTT3=
EXTT4=
EXTT5=
EXTT6=
EXTT7=
EXTT8=
EXTT9=
PLAYORDER=
